<?xml version="1.0" standalone="no"?>
<!DOCTYPE svg PUBLIC "-//W3C//DTD SVG 20010904//EN"
 "http://www.w3.org/TR/2001/REC-SVG-20010904/DTD/svg10.dtd">
<svg version="1.0" xmlns="http://www.w3.org/2000/svg"
 width="794.000000pt" height="617.000000pt" viewBox="0 0 794.000000 617.000000"
 preserveAspectRatio="xMidYMid meet">

<g transform="translate(0.000000,617.000000) scale(0.100000,-0.100000)"
fill="#000000" stroke="none">
<path d="M5071 5442 c-73 -251 -182 -621 -242 -822 -59 -201 -193 -655 -298
-1010 -105 -355 -220 -742 -255 -860 -36 -118 -67 -222 -68 -231 -2 -11 203
-202 577 -539 319 -288 660 -595 758 -684 98 -89 182 -162 186 -164 3 -1 36
100 73 225 87 298 350 1194 439 1492 38 129 66 238 62 242 -745 664 -1153
1035 -1153 1047 0 7 106 374 236 815 130 441 237 808 238 816 1 9 -63 32 -199
72 -110 32 -204 59 -210 59 -5 0 -70 -206 -144 -458z m346 -2149 c379 -342
392 -354 383 -381 -5 -15 -62 -205 -125 -422 -160 -545 -165 -562 -175 -558
-10 4 -761 680 -779 702 -11 13 12 99 136 520 89 303 152 502 158 498 5 -3
186 -165 402 -359z"/>
<path d="M50 3120 l0 -2120 210 0 209 0 12 43 c6 23 15 50 20 59 13 26 464
1269 548 1512 l17 48 520 -820 519 -821 263 -1 263 0 -19 28 c-10 15 -320 501
-687 1081 l-669 1055 26 76 c15 41 180 502 367 1023 188 521 341 950 341 952
0 3 -112 5 -248 5 l-249 0 -252 -702 c-139 -387 -363 -1012 -499 -1390 l-247
-686 -3 1389 -2 1389 -220 0 -220 0 0 -2120z"/>
<path d="M2360 5235 c0 -8 92 -812 251 -2180 77 -671 145 -1260 149 -1310 8
-85 75 -652 159 -1355 21 -173 41 -308 44 -300 4 8 52 168 107 355 55 187 139
469 185 627 47 158 126 426 175 595 49 170 209 713 355 1208 147 495 270 914
275 930 12 43 38 130 234 795 97 327 179 605 182 618 l6 22 -229 0 -229 0 -73
-247 c-40 -137 -83 -284 -96 -328 -36 -124 -608 -2060 -662 -2240 -26 -88 -49
-153 -50 -145 -2 8 -77 663 -168 1455 -91 792 -167 1455 -170 1473 l-6 32
-219 0 c-121 0 -220 -2 -220 -5z"/>
<path d="M5980 5020 l0 -220 676 0 c639 0 675 -1 670 -17 -9 -29 -223 -762
-291 -998 -75 -262 -89 -310 -486 -1670 -170 -583 -312 -1068 -315 -1077 -5
-17 10 -18 225 -18 l229 0 10 33 c6 17 29 95 51 172 81 282 602 2072 625 2150
28 93 37 124 316 1085 116 399 215 737 220 753 l9 27 -970 0 -969 0 0 -220z"/>
</g>
</svg>
